<svg width="700" height="135" viewBox="0 0 700 135" fill="none" xmlns="http://www.w3.org/2000/svg">
<g clip-path="url(#clip0_102_10)">
<path d="M4.47847e-05 69.9878C57.8915 144.859 26.5152 21.1991 65.4041 14.5745C104.293 7.94984 87.942 69.9878 122.854 69.9878C157.765 69.9878 122.854 -6.18269 157.765 0.883587C192.677 7.94986 171.823 75.1563 209.889 76.497C247.955 77.8377 244.782 34.5045 289.476 37.5475C334.171 40.5904 314.798 92.3732 349.991 92.3732C385.185 92.3732 375.569 59.7212 392.07 43.0336C401.951 31.5145 424.709 24.7936 441.669 47.2319C458.63 69.6702 460.079 103.83 486.815 102.278C499.002 97.7622 500.514 81.1716 511.049 74.1861C518.694 68.6824 527.329 73.7804 537.988 82.4682C551.563 93.5286 592.51 106.556 571.528 46.2794C558.536 8.9527 623.559 -23.6287 625.203 23.1972C630.373 170.951 657.134 10.1581 700 70.0293V134.266H0L4.47847e-05 69.9878Z" fill="url(#paint0_linear_102_10)"/>
<path d="M34.3663 83.9338C32.7252 88.1808 29.5155 90.8974 27.1973 90.0016C24.8791 89.1058 27.3587 86.7469 28.9998 82.5C30.6409 78.253 30.8221 73.7261 33.1403 74.6219C35.4585 75.5177 36.0074 79.6868 34.3663 83.9338Z" fill="white" fill-opacity="0.37"/>
<path d="M134.567 6.12099C135.634 1.74197 141.5 -1.50006 142.5 0.999963C143.5 3.49999 141 3.99992 139.794 8C138.589 12.0001 139.294 16.5 136.582 16.3268C133.869 16.1536 133.5 10.5 134.567 6.12099Z" fill="white" fill-opacity="0.37"/>
<path d="M502.777 69.4958C506.024 66.3698 512.714 66.7745 512.219 69.4213C511.724 72.0681 509.345 71.1509 506.185 73.8827C503.024 76.6146 501.209 80.7922 499.011 79.193C496.814 77.5937 499.53 72.6218 502.777 69.4958Z" fill="white" fill-opacity="0.37"/>
<path d="M70.5 6.49998C66.1 6.09998 57.5 12.0001 55 17.5C60.1453 12.5 67.5 11 72 12C76 12.8889 76 6.99998 70.5 6.49998Z" fill="white" fill-opacity="0.37"/>
<path d="M98.5 38C101 47.5 107 64.5 118 66.5" stroke="white" stroke-opacity="0.25" stroke-width="3" stroke-linecap="round"/>
<path d="M243 54C233.5 67 221.8 72.1 211 72.5C197.5 73 190.5 59 188 46.5" stroke="white" stroke-opacity="0.25" stroke-width="3" stroke-linecap="round"/>
<circle cx="186.5" cy="41.5" r="1.5" fill="white" fill-opacity="0.37"/>
<path d="M286 31.0001C284.814 23.8871 267.833 36.1667 263.5 39.0001C269 36.0001 274 35.0001 278.5 34.5001C283 34.0001 286.5 34 286 31.0001Z" fill="white" fill-opacity="0.37"/>
<path d="M440.182 37.5381C444.206 31.5538 423.43 28.8168 418.334 27.9001C424.392 29.4969 428.713 32.204 432.327 34.9311C435.942 37.6583 438.486 40.062 440.182 37.5381Z" fill="white" fill-opacity="0.37"/>
<path d="M568.217 50.7973C561.131 52.1305 566.821 31.9619 567.991 26.9185C567.066 33.1147 567.846 38.1536 568.924 42.5511C570.003 46.9485 571.206 50.235 568.217 50.7973Z" fill="white" fill-opacity="0.37"/>
<path d="M331.357 73.3613C331.005 72.6117 330.111 72.29 329.361 72.6428C328.612 72.9955 328.29 73.8891 328.643 74.6387L331.357 73.3613ZM376.373 73.6041C376.707 72.8458 376.363 71.9607 375.604 71.627C374.846 71.2934 373.961 71.6376 373.627 72.3959L376.373 73.6041ZM328.643 74.6387C330.691 78.9906 333.306 83.0821 336.915 86.0898C340.558 89.1255 345.147 91 351 91V88C345.853 88 341.943 86.3745 338.835 83.7852C335.695 81.1679 333.309 77.5094 331.357 73.3613L328.643 74.6387ZM351 91C356.68 91 361.621 89.9668 365.881 87.1947C370.137 84.4246 373.547 80.0261 376.373 73.6041L373.627 72.3959C370.953 78.4739 367.863 82.3254 364.244 84.6803C360.629 87.0332 356.32 88 351 88V91Z" fill="white" fill-opacity="0.25"/>
<path d="M630.5 58.5C630.5 66 631.5 77.5 636.5 82.5C641.5 87.5 652 68.5 655.5 66" stroke="white" stroke-opacity="0.25" stroke-width="3" stroke-linecap="round"/>
<ellipse cx="568.851" cy="55.4634" rx="2.02509" ry="2.98184" transform="rotate(-18.1006 568.851 55.4634)" fill="white" fill-opacity="0.37"/>
</g>
<defs>
<linearGradient id="paint0_linear_102_10" x1="349.991" y1="-100" x2="349.991" y2="133.533" gradientUnits="userSpaceOnUse">
<stop stop-color="#002A50"/>
<stop offset="1" stop-color="#074575"/>
</linearGradient>
<clipPath id="clip0_102_10">
<rect width="700" height="135" fill="white"/>
</clipPath>
</defs>
</svg>
