<svg width="700" height="135" viewBox="0 0 700 135" fill="none" xmlns="http://www.w3.org/2000/svg">
<g clip-path="url(#clip0_102_10)">
<path d="M4.47847e-05 69.9878C57.8915 144.859 26.5152 21.1991 65.4041 14.5745C104.293 7.94984 87.942 69.9878 122.854 69.9878C157.765 69.9878 122.854 -6.18269 157.765 0.883587C192.677 7.94986 171.823 75.1563 209.889 76.497C247.955 77.8377 244.782 34.5045 289.476 37.5475C334.171 40.5904 314.798 92.3732 349.991 92.3732C385.185 92.3732 375.569 59.7212 392.07 43.0336C401.951 31.5145 424.709 24.7936 441.669 47.2319C458.63 69.6702 460.079 103.83 486.815 102.278C499.002 97.7622 500.514 81.1716 511.049 74.1861C518.694 68.6824 527.329 73.7804 537.988 82.4682C551.563 93.5286 592.51 106.556 571.528 46.2794C558.536 8.9527 623.559 -23.6287 625.203 23.1972C630.373 170.951 657.134 10.1581 700 70.0293V134.266H0L4.47847e-05 69.9878Z" fill="url(#paint0_linear_102_10)"/>
<path d="M34.3663 83.9338C32.7252 88.1808 29.5155 90.8974 27.1973 90.0016C24.8791 89.1058 27.3587 86.7469 28.9998 82.5C30.6409 78.253 30.8221 73.7261 33.1403 74.6219C35.4585 75.5177 36.0074 79.6868 34.3663 83.9338Z" fill="white" fill-opacity="0.37"/>
</g>
<defs>
<linearGradient id="paint0_linear_102_10" x1="349.991" y1="-100" x2="349.991" y2="133.533" gradientUnits="userSpaceOnUse">
<stop stop-color="#002A50"/>
<stop offset="1" stop-color="#074575"/>
</linearGradient>
<clipPath id="clip0_102_10">
<rect width="700" height="135" fill="white"/>
</clipPath>
</defs>
</svg>
