<?xml version="1.0" encoding="UTF-8"?><svg xmlns="http://www.w3.org/2000/svg" xmlns:xlink="http://www.w3.org/1999/xlink" viewBox="0 0 686.44 540.96"><defs><style>.q{fill:url(#e);}.r{fill:url(#g);}.s{fill:url(#i);}.t{fill:url(#k);}.u{fill:url(#m);}.v{fill:url(#n);}.w{mask:url(#h);}.x{mask:url(#j);}.y{mask:url(#d);}.a`{mask:url(#f);}.aa{fill:#f28888;}.ab{fill:#eae5ce;}.ac{fill:#fff;}.ad{fill:#f1625a;}.ae{fill:#cf346c;}.af{fill:#ce4a40;}.ag{fill:#ada277;}.ah{opacity:.57;}.ai{fill:#1e1e1e;stroke:#000;stroke-width:2.97px;}.ai,.aj{stroke-miterlimit:10;}.ak{fill:#6d736a;opacity:.29;}.aj{fill:none;stroke:#fff;stroke-width:.25px;}</style><linearGradient id="e" x1="90.37" y1="1874.26" x2="90.37" y2="1435.15" gradientTransform="translate(0 1116.31) scale(1 -.49)" gradientUnits="userSpaceOnUse"><stop offset="0" stop-color="#231f20"/><stop offset="1" stop-color="#fff"/></linearGradient><mask id="d" x="34.08" y="192.18" width="112.58" height="216.51" maskUnits="userSpaceOnUse"><rect x="34.08" y="192.18" width="112.58" height="216.51" style="fill:url(#e);"/></mask><linearGradient id="g" x1="47.9" y1="251.24" x2="128.19" y2="251.24" gradientTransform="matrix(1, 0, 0, 1, 0, 0)" gradientUnits="userSpaceOnUse"><stop offset="0" stop-color="#fff"/><stop offset="1" stop-color="#4f4f51"/></linearGradient><mask id="f" x="47.17" y="112.3" width="81.03" height="277.86" maskUnits="userSpaceOnUse"><rect x="47.9" y="112.3" width="80.28" height="277.86" style="fill:url(#g);"/></mask><linearGradient id="i" x1="195.3" x2="195.3" xlink:href="#e"/><mask id="h" x="139.01" y="192.18" width="112.58" height="216.51" maskUnits="userSpaceOnUse"><rect x="139.01" y="192.18" width="112.58" height="216.51" style="fill:url(#i);"/></mask><linearGradient id="k" x1="152.83" x2="233.12" xlink:href="#g"/><mask id="j" x="152.1" y="112.3" width="81.03" height="277.86" maskUnits="userSpaceOnUse"><rect x="152.83" y="112.3" width="80.28" height="277.86" style="fill:url(#k);"/></mask><radialGradient id="m" cx="251.73" cy="208.87" fx="251.73" fy="208.87" r="35.67" gradientTransform="matrix(1, 0, 0, 1, 0, 0)" gradientUnits="userSpaceOnUse"><stop offset="0" stop-color="#6e3529"/><stop offset=".23" stop-color="#8b3729"/><stop offset=".56" stop-color="#b03b2a"/><stop offset=".83" stop-color="#c73e2a"/><stop offset="1" stop-color="#d03f2b"/></radialGradient><linearGradient id="n" x1="276.45" y1="460.32" x2="234.74" y2="389.03" gradientTransform="matrix(1, 0, 0, 1, 0, 0)" gradientUnits="userSpaceOnUse"><stop offset="0" stop-color="#6e362a"/><stop offset=".23" stop-color="#8b382a"/><stop offset=".56" stop-color="#b03c2a"/><stop offset=".83" stop-color="#c73f2a"/><stop offset="1" stop-color="#d0402b"/></linearGradient></defs><g id="a"/><g id="b"><g id="c"><g><path d="M163.97,429.92v86.29h0c0,7.01-2.97,13.97-8.73,18.86-10.42,8.85-30.53,7.57-39.38-2.85-3.95-4.65-5.86-10.35-5.86-16.01h-.01v-86.29h53.98Z" style="fill:#ada277;"/><path d="M163.97,429.92v86.29h0c0,7.01-2.97,13.97-8.73,18.86-10.42,8.85-26.03,7.57-34.88-2.85-3.95-4.65-5.86-10.35-5.86-16.01h-.01v-86.29h49.48Z" style="fill:#eae5ce;"/><rect x="109.99" y="429.92" width="53.98" height="8.18" style="fill:#6d736a; opacity:.29;"/><g><circle cx="139.23" cy="139.23" r="137.74" style="fill:#1e1e1e; stroke:#000; stroke-miterlimit:10; stroke-width:2.97px;"/><g style="opacity:.57;"><circle cx="139.23" cy="139.23" r="136.49" style="fill:none; stroke:#fff; stroke-miterlimit:10; stroke-width:.25px;"/><circle cx="139.23" cy="139.23" r="132.49" style="fill:none; stroke:#fff; stroke-miterlimit:10; stroke-width:.25px;"/><circle cx="139.23" cy="139.23" r="128.49" style="fill:none; stroke:#fff; stroke-miterlimit:10; stroke-width:.25px;"/><circle cx="139.23" cy="139.23" r="124.49" style="fill:none; stroke:#fff; stroke-miterlimit:10; stroke-width:.25px;"/><circle cx="139.23" cy="139.23" r="120.49" style="fill:none; stroke:#fff; stroke-miterlimit:10; stroke-width:.25px;"/><circle cx="139.23" cy="139.23" r="116.49" style="fill:none; stroke:#fff; stroke-miterlimit:10; stroke-width:.25px;"/><circle cx="139.23" cy="139.23" r="112.49" style="fill:none; stroke:#fff; stroke-miterlimit:10; stroke-width:.25px;"/><circle cx="139.23" cy="139.23" r="108.49" style="fill:none; stroke:#fff; stroke-miterlimit:10; stroke-width:.25px;"/><circle cx="139.23" cy="139.23" r="104.49" style="fill:none; stroke:#fff; stroke-miterlimit:10; stroke-width:.25px;"/><circle cx="139.23" cy="139.23" r="100.49" style="fill:none; stroke:#fff; stroke-miterlimit:10; stroke-width:.25px;"/><circle cx="139.23" cy="139.23" r="96.49" style="fill:none; stroke:#fff; stroke-miterlimit:10; stroke-width:.25px;"/><circle cx="139.23" cy="139.23" r="92.49" style="fill:none; stroke:#fff; stroke-miterlimit:10; stroke-width:.25px;"/><circle cx="139.23" cy="139.23" r="88.49" style="fill:none; stroke:#fff; stroke-miterlimit:10; stroke-width:.25px;"/><circle cx="139.23" cy="139.23" r="84.49" style="fill:none; stroke:#fff; stroke-miterlimit:10; stroke-width:.25px;"/><circle cx="139.23" cy="139.23" r="80.49" style="fill:none; stroke:#fff; stroke-miterlimit:10; stroke-width:.25px;"/><circle cx="139.23" cy="139.23" r="76.49" style="fill:none; stroke:#fff; stroke-miterlimit:10; stroke-width:.25px;"/><circle cx="139.23" cy="139.23" r="72.49" style="fill:none; stroke:#fff; stroke-miterlimit:10; stroke-width:.25px;"/><circle cx="139.23" cy="139.23" r="68.49" style="fill:none; stroke:#fff; stroke-miterlimit:10; stroke-width:.25px;"/><circle cx="139.23" cy="139.23" r="64.49" style="fill:none; stroke:#fff; stroke-miterlimit:10; stroke-width:.25px;"/><circle cx="139.23" cy="139.23" r="60.49" style="fill:none; stroke:#fff; stroke-miterlimit:10; stroke-width:.25px;"/><circle cx="139.23" cy="139.23" r="56.49" style="fill:none; stroke:#fff; stroke-miterlimit:10; stroke-width:.25px;"/><circle cx="139.23" cy="139.23" r="52.49" style="fill:none; stroke:#fff; stroke-miterlimit:10; stroke-width:.25px;"/><circle cx="139.23" cy="139.23" r="48.49" style="fill:none; stroke:#fff; stroke-miterlimit:10; stroke-width:.25px;"/></g><circle cx="139.23" cy="139.23" r="45.63" style="fill:#f1625a;"/><circle cx="139.23" cy="139.23" r="8.24" style="fill:#fff;"/></g><path d="M278.35,185.32l.04,40.52v188.97c0,8.34-6.76,15.11-15.11,15.11H83.57c-1.52,0-2.75,1.23-2.75,2.74v30.81c0,6.81-5.33,12.66-12.15,12.77-6.94,.13-12.6-5.46-12.6-12.36v-31.2c0-1.53-1.23-2.76-2.76-2.76h-9.18c-1.52,0-2.75,1.23-2.75,2.75v17.01c0,5.83-4.56,10.84-10.39,10.96-5.95,.12-10.82-4.67-10.82-10.6v-17.36c0-1.52-1.24-2.76-2.76-2.76h-2.23c-8.34,0-15.11-6.77-15.11-15.11v-128.53s.08-26.58,.15-59.1c.05-26.28,.1-56.46,.1-79.63,42.89-5.22,47.26,64.24,76.27,65.96,29.01,1.72,31.36-20.14,51.61-20.14s22.5,22.86,49.42,22.86,25.57-28.48,38.32-47c12.74-18.52,33.99-22.85,62.45-27.31l-.04,43.4Z" style="fill:#cf346c;"/><path d="M.22,227.19c-.07,32.52-.15,59.1-.15,59.1v-59.1H.22Z" style="fill:#ce4a40;"/><polygon points="278.46 287.93 278.39 287.93 278.39 225.84 278.46 287.93" style="fill:#ce4a40;"/><g style="mask:url(#d);"><g style="mask:url(#f);"><path d="M128.2,193.38v151.9c0,22.38-18.14,40.52-40.52,40.52s-40.51-18.14-40.51-40.52V184.86s11.23,26.46,29.42,28.66,51.61-20.14,51.61-20.14Z" style="fill:#f28888;"/></g></g><g style="mask:url(#h);"><g style="mask:url(#j);"><path d="M233.13,153.99v191.28c0,22.38-18.14,40.52-40.52,40.52s-40.51-18.14-40.51-40.52V207.71s16.69,14.42,37.34,6.05c15.88-6.44,43.69-59.77,43.69-59.77Z" style="fill:#f28888;"/></g></g></g><g id="l"><path d="M279.4,226.78c-49.17,7.98-46.11-60.07-1.03-58.81,8.63-.67,25.34-9.95,0-9.09-25.34,.86-54.49,17.72-54.41,44.56,.09,26.83,17.66,44.56,54.49,42.91-.5-8.73-.03-8.97,.94-19.56Z" style="fill:url(#m);"/><path d="M252.88,429.93s9.36-12.32,25.5-15.11c0-7.06,.07-25.5,.07-25.5,0,0-4.3-5.19-20.57,1.33-19.23,7.7-35.9,20.67-42.19,40.28,5.69,0,37.19-1,37.19-1Z" style="fill:url(#n);"/></g><g id="o"><path d="M338.67,100.4c-.08,3.55,5.12,4.19,6.49,3.12s8.09-14.83,8.05-26.57c-.05-11.74-8.77-36.21-36-23.4-27.24,12.81-14.95,49.69-5.85,72.68,7.92,20,17.77,34.93,15.14,55.88-2.64,20.95-13.72,31.37-37.38,35.21-23.67,3.84-38.03-8.49-38.28-20.76-.25-12.28,13.28-24.86,33.25-24.3,19.97,.56,33.2,15.83,42.44,10.04,2.14-1.34,.52-10.11,.52-10.11,0,0-20.54-14.31-45.87-13.45-25.34,.86-52.58,14.15-52.49,40.99,.09,26.83,25.29,44.56,62.12,42.91,36.83-1.65,63.6-26.33,60.94-59.05-2.66-32.72-16.58-54.69-24.03-71.83-7.45-17.14-5.9-40.57,6.44-40.03,12.34,.54,4.74,19.68,4.52,28.69Z" style="fill:#fff;"/><path d="M362.1,98.9c-2.87-3.35-6.69-8.3-5.7-10.09,.99-1.79,14.46-12.98,26.71-8.4,12.25,4.59,19.64,16.78,6.55,53.16-8.39,23.34-12.74,40.02-8.7,43.61,4.04,3.59,11-.84,15.45-5.79,4.44-4.96,9.05-11.32,9.05-11.32,0,0,4.08-24.18,7.89-39.54,3.81-15.36,8.46-38.11,10.09-39.46s18.19-2.23,19.36-.65-4.67,26.06-8.46,40.84c-13.01,50.69-6.39,55.75-.39,56.63,6,.88,19.21-16.71,24.23-36.63,2.57,9.93-3.56,32.53-9.9,41.74-5.04,7.31-11.44,14.26-23.39,13.68-11.95-.58-20.21-6.88-19.11-23.99-4.6,6.29-11.39,14.33-19.43,18.93-8.04,4.6-20.71,6.04-26.62-.86-5.9-6.89-4.68-19.05,2.48-43.02,7.16-23.97,12.36-43.69,10.88-47.22s-5.82-5.02-11-1.64Z" style="fill:#fff;"/><path d="M585.83,173.75c-8.28,15.65-13.59,18.07-25.46,18.45-11.87,.38-18.25-7.4-18.72-21.5-.47-14.1,8.84-39.69,12.32-49.61,3.47-9.94,5.07-17.28,3.06-20.89-2-3.61-7.29-2.25-11,.88-3.7,3.11-6.67,6.19-12.8,13.37-1.55,5.98-3.55,12.48-5.87,19.61-4.92,15.15-9.41,36.96-5.66,39.44,3.76,2.49,8.8-1.08,10.34,.47,1.53,1.53,5.54,8.17,4.49,9.85-1.05,1.68-8.73,8-20.6,8.38-11.87,.38-18.25-7.4-18.72-21.5-.47-14.1,8.84-39.69,12.32-49.61,3.47-9.94,5.07-17.28,3.06-20.89-2-3.61-7.29-2.25-11,.88-3.71,3.12-6.7,6.21-12.89,13.47,0-.19-3.58,12.19-5.96,19.52-4.92,15.15-9.41,36.96-5.66,39.44,3.76,2.49,8.81-1.08,10.34,.47,1.53,1.53,5.54,8.17,4.49,9.85-1.05,1.68-8.73,8-20.59,8.38-11.87,.38-18.26-7.4-18.72-21.5-.47-14.1,8.84-39.69,12.32-49.61,3.47-9.94,5.07-17.28,3.06-20.89-2-3.61-7.29-2.25-11,.88-3.71,3.12-6.7,6.21-12.89,13.47,.3-8,3.33-15.84,3.33-15.84,0,0,6.21-20.1,24.78-20.1s20.7,6.98,19.82,17.5c-.1,1.25-.25,2.53-.42,3.83,.26-.78,.44-1.23,.44-1.23,0,0,6.21-20.1,24.78-20.1s20.7,6.98,19.81,17.5c-.08,.99-.19,1.99-.31,3.01,.1-.26,.15-.4,.15-.4,0,0,6.21-20.1,24.78-20.1s20.7,6.98,19.81,17.5c-.88,10.52-4.35,22.81-9.27,37.96-4.92,15.15-10.55,41-1.49,40.48,9.07-.51,16.98-22.99,19.02-27.31,3.23-.72,4.78,10.87-3.5,26.51Z" style="fill:#fff;"/><path d="M488.7,313.63c-8.28,15.65-13.59,18.07-25.46,18.45-11.87,.38-18.25-7.4-18.72-21.5-.47-14.1,8.84-39.69,12.32-49.61,3.47-9.94,5.07-17.28,3.06-20.89-2-3.61-7.29-2.25-11,.88-3.7,3.11-6.67,6.19-12.8,13.37-1.55,5.98-3.55,12.48-5.87,19.61-4.92,15.15-9.41,36.96-5.66,39.44,3.76,2.49,8.8-1.08,10.34,.47,1.53,1.53,5.54,8.17,4.49,9.85-1.05,1.68-8.73,8-20.6,8.38-11.87,.38-18.25-7.4-18.72-21.5-.47-14.1,8.84-39.69,12.32-49.61,3.47-9.94,5.07-17.28,3.06-20.89-2-3.61-7.29-2.25-11,.88-3.71,3.12-6.7,6.21-12.89,13.47,0-.19-3.58,12.19-5.96,19.52-4.92,15.15-9.41,36.96-5.66,39.44,3.76,2.49,8.81-1.08,10.34,.47,1.53,1.53,5.54,8.17,4.49,9.85-1.05,1.68-8.73,8-20.59,8.38-11.87,.38-18.26-7.4-18.72-21.5-.47-14.1,8.84-39.69,12.32-49.61,3.47-9.94,5.07-17.28,3.06-20.89-2-3.61-7.29-2.25-11,.88-3.71,3.12-6.7,6.21-12.89,13.47,.3-8,3.33-15.84,3.33-15.84,0,0,6.21-20.1,24.78-20.1s20.7,6.98,19.82,17.5c-.1,1.25-.25,2.53-.42,3.83,.26-.78,.44-1.23,.44-1.23,0,0,6.21-20.1,24.78-20.1s20.7,6.98,19.81,17.5c-.08,.99-.19,1.99-.31,3.01,.1-.26,.15-.4,.15-.4,0,0,6.21-20.1,24.78-20.1s20.7,6.98,19.81,17.5c-.88,10.52-4.35,22.81-9.27,37.96-4.92,15.15-10.55,41-1.49,40.48,9.07-.51,16.98-22.99,19.02-27.31,3.23-.72,4.78,10.87-3.5,26.51Z" style="fill:#fff;"/><path d="M517.19,264.92c7.8-5.21,13.61-9.13,18.55-15.24,5.28-6.53,11.95-21.12,6.4-26.07-5.55-4.95-13.3,1.3-20.3,12.6-7,11.3-23.2,63.16,4.15,68.22,27.35,5.06,36.31-32.24,39.27-34.08,2.96-1.84,6.37,1.01,6.87,3.1,.5,2.09-13.91,55.09-46.42,52.63-32.51-2.46-36.3-34.65-33.77-56.32s16.64-62.3,42.85-62.88c27.5-.61,27,20.83,22.38,35-4.13,12.68-22.21,29.29-36.78,31.91-3.08,.55-3.2-8.86-3.2-8.86Z" style="fill:#fff;"/><path d="M400,434.13c6.89-4.61,12.03-8.08,16.4-13.47,4.67-5.77,10.57-18.67,5.66-23.05-4.91-4.38-11.76,1.15-17.95,11.14-6.19,9.99-20.51,55.84,3.67,60.31,24.18,4.48,32.1-28.5,34.72-30.13,2.62-1.63,5.63,.89,6.07,2.74s-12.3,48.7-41.04,46.53c-28.74-2.18-32.09-30.63-29.86-49.79,2.21-18.98,14.72-55.08,37.89-55.59,24.32-.54,23.87,18.42,19.79,30.94-3.66,11.21-19.63,25.89-32.52,28.21-2.73,.49-2.83-7.83-2.83-7.83Z" style="fill:#fff;"/><path d="M649.18,296.57c-19.62-1.96-39.65,9.73-50.4,15.28,2.36-13.76,6.35-29.12,9.71-38.75,3.35-9.62,7.77-18.28,7.51-23.15-.26-4.87-21.49-35.28-21.49-35.28,0,0,5.79-9.91,4.27-22.45-.51-4.24-15.21-6.55-17.39-2.03-7.78,16.15,1.1,30.58,1.1,30.58,0,0-11.13,31.79-12.27,35.69-1.2,4.1,6.2,6.28,7.32,3.08,1.4-3.96,5.39-20,9.63-22.63,4.24-2.63,6.65,1.62,6.65,5.67s-16.41,59.9-16.41,75.76c-26.67,15.15-91.29,36.29-128.84,42.92-37.54,6.63-45.16-10.79-58.47-7.25-13.31,3.54-10.89,19.46-.58,24.3,10.31,4.84,21.16,5.71,60.47-2.18-3.38,15.12-3.94,17.46-13.12,58.59-5.02,22.49,.2,42.98,20.27,42.98s38.49-37.51,31.19-42.59c-10.47,19.47-17.42,26.84-24.79,24.08s-6.61-27.45-3.42-46.52c3.19-19.07,1.33-20.57,7.53-38.99,57.11-15.94,83.03-25.93,110.44-42.28,0,14.75,14,40.7,51.35,40.7,25.87,0,56.29-14.66,56.97-36.03,.69-21.36-17.61-37.52-37.23-39.48Zm16.45,28.24c-.38,10.79-7.46,21.45-25.11,23.54s-40.36-3.6-41.74-25.63c44.73-24.46,67.23-8.71,66.85,2.09Z" style="fill:#fff;"/><path id="p" d="M334.65,312.79c.55,4.26,7.23,3.97,8.76,2.4,1.53-1.57,10.13-10.43,5.25-33.46s-32.82-35.15-53.71-20.62-14.66,44.14,5.99,73.98,51.74,55.38,52.27,81c.53,25.62-19.73,42.07-52.27,48.82s-56.78-4.36-59.36-19c-2.58-14.64,12.17-32.48,37.46-35.92,25.29-3.43,57.8,.76,76.95,16.89,1.86,1.56,0-15.35,0-15.35,0,0-51.33-23.35-83.12-17.13-31.79,6.22-63.69,27.73-58.64,59.83,5.05,32.1,44.08,40.08,86.23,38.62s93.39-35.42,76.64-76.19-49.53-66.13-63.2-90.51-5.91-44.9,9.75-46.78c15.66-1.88,9.6,22.59,10.98,33.42Z" style="fill:#fff;"/><g><path d="M491.04,381.42c1.76-.63,4.34,.43,5.44,3.5,1.99,5.58,.97,10.81-1.49,13.74-1.93,2.22-4.78,1.99-5.83-.47,2.6-3.03,3.5-6.86,3.04-8.45-1.13,.63-3.93,.89-4.81-1.57-.57-1.61-.62-5.22,3.65-6.74Z" style="fill:#fff;"/><path d="M507.49,412.07c-.15-.12-.45-.81-.38-.95l5.23-10.64c3.08-6.31,7.4-14.92,5.94-20.05-.34-1.18-1.32-1.51-2.29-1.23-3.85,1.1-8.3,6.3-9.07,10.79l.79,.83c.19,.67-2.33,3.71-3.73,4.61l-3.99-2.14c-.29-7.63,5.33-16.16,12.41-18.17,5.79-1.65,11.03,1.74,12.13,5.59,1.71,6-1.89,14.01-6.1,21.42l-3.06,5.81,9.65-5.24c.11-.59,.57-1.33,1.44-1.57,.87-.25,3.93,3.48,4.28,4.71,.19,.67-.59,1.22-1.23,1.52-5.09,2.56-15.66,7.34-17.58,8.77-1.46,.31-4.49-1.16-5.07-2.82l.65-1.24Z" style="fill:#fff;"/><path d="M531.08,405.35c-.13-.14-.37-.86-.28-.98l6.3-10.05c3.71-5.96,8.89-14.08,7.96-19.33-.21-1.21-1.16-1.64-2.15-1.46-3.94,.7-8.9,5.42-10.13,9.8l.7,.91c.12,.68-2.69,3.46-4.19,4.21l-3.75-2.53c.5-7.62,6.95-15.53,14.2-16.81,5.94-1.05,10.8,2.86,11.49,6.8,1.08,6.15-3.32,13.75-8.26,20.69l-3.64,5.46,10.14-4.23c.17-.57,.7-1.26,1.59-1.42,.89-.16,3.55,3.87,3.78,5.13,.12,.68-.72,1.16-1.38,1.38-5.33,2.02-16.33,5.7-18.38,6.93-1.49,.15-4.35-1.62-4.76-3.33l.77-1.17Z" style="fill:#fff;"/></g><ellipse cx="462.05" cy="358.99" rx="16" ry="8.93" transform="translate(10.81 731.47) rotate(-77.38)" style="fill:#fff;"/></g></g></g></svg>